# xmcd
#
# Track frame offsets:
#	150
#	14323
#	27287
#	38321
#	49812
#	65359
#	80032
#	91776
#	105966
#	119344
#	132604
#	147732
#	164885
#	179083
#
# Disc length: 2632 seconds
#
# Revision: 0
# Processed by: cddbd v1.5.2PL0 Copyright (c) Steve Scherf et al.
# Submitted via: EasyCDDAExtractor 16.0.1.1
#
DISCID=c30a460e
DTITLE=Various Artist - Χοροί and τραγούδια απ' όλη την Ελλάδα (2009)
DYEAR=2009
DGENRE=Δημοτικά
TTITLE0=Ειρήνη Κονιτοπούλου Λεγάκη - Μιά τράτα ανεμότρατα( Συρτός)
TTITLE1=Ειρήνη Κονιτοπούλου Λεγάκη - Το μαντηλάκι (Καλαματιανό)
TTITLE2=Ειρήνη Κονιτοπούλου Λεγάκη - Έλα να πάμε σ' ένα μέρος (Συρτός-Σούστα)
TTITLE3=Ειρήνη Κονιτοπούλου Λεγάκη - Να 'ρθείτε όλοι στο χωριό (Πηδηχτός)
TTITLE4=Ειρήνη Κονιτοπούλου Λεγάκη - Στην όμορφη την Πάρο
TTITLE5=Ειρήνη Κονιτοπούλου Λεγάκη - Αρμενάκι (Μπάλλος)
TTITLE6=Στέλλα Κονιτοπούλου - Εκατό καρδιές να είχα
TTITLE7=Ειρήνη Κονιτοπούλου Λεγάκη, Αγγελική Κονιτοπούλου - Μαύρα μου μάτια (Σ
TTITLE7=υρτοτσιφτετέλι)
TTITLE8=Νίκος Ξυλούρης - Καλημερίζω το στενό (Σούστα)
TTITLE9=Νίκος Ξυλούρης - Τα μάτια σου είναι θάλασσα (Μεσοχωριανός Συρτός)
TTITLE10=Νίκος Ξυλούρης - Πάψε να ζεις με όνειρα
TTITLE11=Αντώνης Ψαραντώνης - Τα μάγουλά σου λάκκο
TTITLE12=Σπύρος Σηφογιωργάκης, Γιάννης Μαρκογιαννάκης - Οι κοπελιές και ο ποτα
TTITLE12=μός
TTITLE13=Γιώργος Καλομοίρης - Τις χάντρες του κομπολογιού
EXTD=
EXTT0=
EXTT1=
EXTT2=
EXTT3=
EXTT4=
EXTT5=
EXTT6=
EXTT7=
EXTT8=
EXTT9=
EXTT10=
EXTT11=
EXTT12=
EXTT13=
PLAYORDER=
